<svg width="95" height="18" viewBox="0 0 95 18" fill="none" xmlns="http://www.w3.org/2000/svg">
<g clip-path="url(#clip0_229_408)">
<path d="M77.874 2.83154C78.828 2.83154 79.3966 3.46391 79.3966 4.37801C79.3966 5.29211 78.828 5.8748 77.874 5.8748C76.8704 5.8748 76.3345 5.25948 76.3345 4.37801C76.3345 3.49654 76.8704 2.83154 77.874 2.83154ZM79.2196 7.07645H76.5103V17.1073H79.2196V7.07645ZM51.7911 5.57204V17.1087H54.7154V5.57204H58.6924V3.65137H48.3203V5.57167L51.7911 5.57204Z" fill="black"/>
<path d="M63.7711 9.73457C63.3969 9.63484 63.0115 9.58366 62.6242 9.58228C61.2862 9.58228 60.5407 10.3807 60.5407 12.016V17.1094H57.8452V7.07421H60.3874V9.82957C60.8848 7.94843 62.184 6.80698 63.7711 6.78921V9.73457ZM84.0148 17.1072V3.6709H81.3232V17.1079H84.0148V17.1072ZM92.5528 10.0968C92.4023 9.81905 91.7152 8.70734 90.234 8.70734C88.8384 8.70734 88.5168 9.34804 88.5588 9.77554C88.6237 10.331 88.9243 10.6084 90.7061 10.9939C93.133 11.4848 94.5928 12.2756 94.5928 14.1992C94.5928 16.4212 92.5314 17.4042 90.019 17.4042C88.7093 17.4042 86.4764 17.0409 85.3818 15.0752L87.2926 13.7935C87.2926 13.7935 88.2593 15.2895 89.9766 15.2895C91.5658 15.2895 91.7163 14.5843 91.7373 14.3279C91.7808 13.9001 91.6518 13.4515 89.8475 13.0451C87.2926 12.4899 85.7679 11.9123 85.7679 9.79694C85.7679 8.70734 86.7346 6.74171 90.1695 6.74171C93.3636 6.74171 94.2748 8.4974 94.4557 8.84585C94.4695 8.87232 94.4789 8.89045 94.4851 8.89951L92.5528 10.0957V10.0968Z" fill="black"/>
<path fill-rule="evenodd" clip-rule="evenodd" d="M69.2806 11.3235C66.4081 11.8797 64.6296 12.5872 64.6296 14.8135L64.6285 14.8124C64.6285 16.4394 65.8715 17.4032 67.7359 17.4032C69.4934 17.4032 70.673 16.546 71.3158 15.0691C71.4014 16.6747 72.1299 17.4032 73.7594 17.4032C74.5313 17.4032 74.8529 17.2534 75.2174 17.0177V15.2189C75.0245 15.3045 74.8743 15.3686 74.5959 15.3686C73.9098 15.3686 73.7815 15.0902 73.7815 14.1485V10.6161C73.7815 8.00433 72.152 6.74069 69.5805 6.74069C67.3092 6.74069 65.7446 7.79004 64.8656 10.0599L67.2236 10.7452C67.5876 9.61027 68.1235 8.83939 69.4521 8.83939C70.781 8.83939 71.2955 9.37458 71.2955 10.0385C71.2955 10.8525 70.417 11.0878 69.2806 11.3235ZM71.3815 12.0306V12.6513C71.3815 13.7652 70.5025 15.4354 68.6591 15.4354C67.6301 15.4354 67.2015 15.0499 67.2015 14.3439C67.2015 13.5299 67.7591 13.1655 69.4735 12.7594C70.5671 12.5237 71.1451 12.3305 71.3815 12.0306ZM25.3682 17.1087L25.3685 17.1076H27.6996L28.5793 14.2954H34.3899L35.308 17.1076H38.4049L33.6839 3.65283H29.9938L25.3689 17.1073H25.3674L25.3685 17.1084L25.3682 17.1087ZM30.9499 6.7697L29.1914 12.3765H33.7601L31.9061 6.7697L31.4286 5.26855H31.3905L30.951 6.7697H30.9499Z" fill="black"/>
<path d="M39.4297 17.1087V3.65283H42.1256V17.1087H39.4297ZM44.2305 17.1087V3.65283H46.926V17.1087H44.2305Z" fill="black"/>
<path fill-rule="evenodd" clip-rule="evenodd" d="M18.5696 5.37548C17.9572 4.20647 17.4844 3.64916 16.8701 3.64916C16.1845 3.64916 15.8821 4.01176 15.4687 4.66081C15.1351 5.09592 14.8128 5.69166 14.2761 5.63256C13.7098 5.57273 13.3816 4.23403 12.9545 3.11361C12.3682 1.58672 12.0299 0 11.0563 0C10.5008 0 10.0146 0.505821 9.26145 1.63712L1.4787 13.5712C0.584173 15.0655 -0.163862 16.1065 0.783238 17.0855C1.89641 18.1563 4.50999 16.2824 6.29868 15.1518C8.08772 14.0212 9.91629 12.9207 12.5001 12.9798C15.9785 13.0596 17.6682 16.55 19.7749 17.2142C21.2061 17.6704 22.5179 17.145 22.796 15.6674C22.9603 14.8552 22.676 14.0669 22.2833 13.226L18.5696 5.37548ZM18.331 12.3754C17.6254 12.9008 16.6414 12.0578 16.0054 11.701C15.3295 11.3239 14.1866 10.4217 12.1394 10.4515C10.47 10.4714 9.56566 11.0962 8.57143 11.7702C6.41507 13.238 4.46721 14.9437 3.91062 14.0611C3.55274 13.4954 4.51688 12.3652 6.78274 8.83537C8.39267 6.32621 9.52687 4.32323 10.3307 4.32323C11.2191 4.32323 11.2688 5.19491 11.404 6.08834C11.6597 7.51153 12.3551 8.25232 13.2583 8.36907C14.2711 8.50613 15.1467 7.65621 15.8426 7.66527C16.4923 7.67905 16.9195 8.61999 17.4561 9.60153C18.1363 10.8213 18.8456 11.9885 18.331 12.3754Z" fill="#48B564"/>
</g>
<defs>
<clipPath id="clip0_229_408">
<rect width="95" height="17.4046" fill="white"/>
</clipPath>
</defs>
</svg>
