<svg width="25" height="25" viewBox="0 0 25 25" fill="none" xmlns="http://www.w3.org/2000/svg">
<path d="M18.6249 13.7292H18.6301C18.6301 13.7292 16.6666 16.6094 15.0155 18.75C13.5885 20.599 13.1718 22.1823 13.052 22.9479C13.0051 23.2292 12.776 23.4375 12.4999 23.4375C12.2239 23.4375 11.9947 23.2292 11.9478 22.9479C11.828 22.1823 11.4114 20.599 9.98429 18.75C9.76554 18.4635 9.54159 18.1667 9.31763 17.8646L14.7083 11.4583L19.0468 6.3125C19.526 7.31771 19.7916 8.44271 19.7916 9.63542C19.7916 11.1458 19.3593 12.5469 18.6249 13.7292Z" fill="#48B564"/>
<path d="M14.7083 11.4583L9.31763 17.8646C7.84888 15.8958 6.36971 13.7292 6.36971 13.7292H6.37492C6.21867 13.4792 6.07804 13.224 5.95825 12.9583L10.2916 7.8125C9.88013 8.30729 9.63534 8.94271 9.63534 9.63542C9.63534 11.2187 10.9166 12.5 12.4999 12.5C13.3905 12.5 14.1874 12.0937 14.7083 11.4583Z" fill="#FCC60E"/>
<path d="M14.7916 2.46867L10.328 7.77075L6.91138 4.79159C8.24471 3.13534 10.2551 2.08325 12.4999 2.08325C13.302 2.08325 14.0728 2.21867 14.7916 2.46867Z" fill="#2C85EB"/>
<path d="M10.328 7.77091L10.2916 7.81258L5.95825 12.9584C5.47909 11.9532 5.20825 10.8282 5.20825 9.6355C5.20825 7.79175 5.84888 6.09904 6.91138 4.79175L10.328 7.77091Z" fill="#ED5748"/>
<path d="M14.7084 11.4583C15.1199 10.9635 15.3647 10.3281 15.3647 9.63542C15.3647 8.05208 14.0834 6.77083 12.5001 6.77083C11.6095 6.77083 10.8126 7.17708 10.2917 7.8125L14.7917 2.46875C16.6615 3.10417 18.1928 4.50521 19.047 6.3125L14.7084 11.4583Z" fill="#5695F6"/>
</svg>
