<svg width="35" height="35" viewBox="0 0 35 35" fill="none" xmlns="http://www.w3.org/2000/svg">
<path d="M26.0749 19.2207H26.0822C26.0822 19.2207 23.3332 23.253 21.0218 26.2499C19.0238 28.8384 18.4405 31.0551 18.2728 32.127C18.2072 32.5207 17.8863 32.8124 17.4999 32.8124C17.1134 32.8124 16.7926 32.5207 16.727 32.127C16.5593 31.0551 15.9759 28.8384 13.978 26.2499C13.6718 25.8489 13.3582 25.4332 13.0447 25.0103L20.5916 16.0416L26.6655 8.8374C27.3363 10.2447 27.7082 11.8197 27.7082 13.4895C27.7082 15.6041 27.103 17.5655 26.0749 19.2207Z" fill="#48B564"/>
<path d="M20.5916 16.0417L13.0447 25.0104C10.9884 22.2542 8.91759 19.2208 8.91759 19.2208H8.92489C8.70614 18.8708 8.50926 18.5135 8.34155 18.1417L14.4082 10.9375C13.8322 11.6302 13.4895 12.5198 13.4895 13.4896C13.4895 15.7063 15.2832 17.5 17.4999 17.5C18.7468 17.5 19.8624 16.9313 20.5916 16.0417Z" fill="#FCC60E"/>
<path d="M20.7083 3.45633L14.4594 10.8792L9.67603 6.70841C11.5427 4.38966 14.3573 2.91675 17.5 2.91675C18.6229 2.91675 19.7021 3.10633 20.7083 3.45633Z" fill="#2C85EB"/>
<path d="M14.4595 10.8791L14.4084 10.9374L8.34175 18.1416C7.67091 16.7343 7.29175 15.1593 7.29175 13.4895C7.29175 10.9083 8.18862 8.53846 9.67612 6.70825L14.4595 10.8791Z" fill="#ED5748"/>
<path d="M20.5918 16.0417C21.1678 15.349 21.5105 14.4594 21.5105 13.4896C21.5105 11.273 19.7168 9.47922 17.5001 9.47922C16.2532 9.47922 15.1376 10.048 14.4084 10.9375L20.7084 3.4563C23.3262 4.34588 25.4699 6.30734 26.6657 8.83755L20.5918 16.0417Z" fill="#5695F6"/>
</svg>
