<svg width="40" height="40" viewBox="0 0 40 40" fill="none" xmlns="http://www.w3.org/2000/svg">
<g clip-path="url(#clip0_106_1059)">
<path fill-rule="evenodd" clip-rule="evenodd" d="M0 20C0 8.95433 8.95433 0 20 0C31.0457 0 40 8.95433 40 20C40 31.0457 31.0457 40 20 40C8.95433 40 0 31.0457 0 20ZM20.001 9.33333C17.1041 9.33333 16.7405 9.346 15.6028 9.39775C14.4672 9.44975 13.6921 9.62958 13.0138 9.89333C12.3123 10.1657 11.7172 10.5302 11.1243 11.1233C10.5309 11.7162 10.1664 12.3113 9.89308 13.0127C9.62867 13.6912 9.44867 14.4665 9.39758 15.6016C9.34667 16.7394 9.33333 17.1032 9.33333 20.0001C9.33333 22.897 9.34625 23.2595 9.39775 24.3972C9.45 25.5328 9.62975 26.3079 9.89333 26.9862C10.166 27.6877 10.5304 28.2828 11.1236 28.8758C11.7163 29.4691 12.3113 29.8344 13.0125 30.1069C13.6912 30.3707 14.4665 30.5504 15.6018 30.6024C16.7397 30.6543 17.103 30.6669 19.9997 30.6669C22.8968 30.6669 23.2593 30.6543 24.3971 30.6024C25.5326 30.5504 26.3086 30.3707 26.9873 30.1069C27.6887 29.8344 28.2828 29.4691 28.8755 28.8758C29.4688 28.2828 29.8333 27.6878 30.1067 26.9864C30.3689 26.3079 30.5489 25.5326 30.6022 24.3975C30.6533 23.2597 30.6667 22.897 30.6667 20.0001C30.6667 17.1032 30.6533 16.7397 30.6022 15.6018C30.5489 14.4663 30.3689 13.6912 30.1067 13.0129C29.8333 12.3113 29.4688 11.7162 28.8755 11.1233C28.2822 10.53 27.6888 10.1656 26.9867 9.89333C26.3066 9.62958 25.5311 9.44975 24.3955 9.39775C23.2577 9.346 22.8955 9.33333 19.9977 9.33333H20.001Z" fill="white"/>
<path fill-rule="evenodd" clip-rule="evenodd" d="M19.0439 11.2561C19.3279 11.2557 19.6448 11.2561 20.0008 11.2561C22.8488 11.2561 23.1864 11.2663 24.3111 11.3174C25.3511 11.365 25.9156 11.5388 26.2916 11.6848C26.7893 11.8781 27.1443 12.1092 27.5173 12.4825C27.8907 12.8558 28.1218 13.2114 28.3156 13.7093C28.4616 14.0848 28.6356 14.6493 28.6829 15.6893C28.734 16.8137 28.7452 17.1515 28.7452 19.9982C28.7452 22.8448 28.734 23.1827 28.6829 24.3071C28.6353 25.3471 28.4616 25.9116 28.3156 26.2871C28.1223 26.7849 27.8907 27.1393 27.5173 27.5125C27.144 27.8858 26.7896 28.1169 26.2916 28.3103C25.916 28.4569 25.3511 28.6303 24.3111 28.6778C23.1867 28.7289 22.8488 28.74 20.0008 28.74C17.1526 28.74 16.815 28.7289 15.6906 28.6778C14.6506 28.6298 14.0861 28.456 13.7099 28.31C13.2121 28.1167 12.8565 27.8856 12.4832 27.5123C12.1098 27.1389 11.8788 26.7843 11.685 26.2863C11.539 25.9107 11.365 25.3463 11.3177 24.3063C11.2665 23.1818 11.2563 22.844 11.2563 19.9955C11.2563 17.147 11.2665 16.811 11.3177 15.6866C11.3652 14.6466 11.539 14.0821 11.685 13.7061C11.8783 13.2083 12.1098 12.8528 12.4832 12.4794C12.8565 12.1061 13.2121 11.875 13.7099 11.6812C14.0859 11.5345 14.6506 11.3612 15.6906 11.3134C16.6746 11.269 17.0559 11.2557 19.0439 11.2534V11.2561ZM25.6947 13.0272C24.988 13.0272 24.4147 13.5999 24.4147 14.3068C24.4147 15.0134 24.988 15.5868 25.6947 15.5868C26.4013 15.5868 26.9747 15.0134 26.9747 14.3068C26.9747 13.6001 26.4013 13.0272 25.6947 13.0272ZM20.0008 14.5228C16.9757 14.5228 14.523 16.9755 14.523 20.0006C14.523 23.0258 16.9757 25.4773 20.0008 25.4773C23.026 25.4773 25.4778 23.0258 25.4778 20.0006C25.4778 16.9755 23.026 14.5228 20.0008 14.5228Z" fill="white"/>
<path fill-rule="evenodd" clip-rule="evenodd" d="M20.0009 16.4441C21.9645 16.4441 23.5565 18.0359 23.5565 19.9997C23.5565 21.9633 21.9645 23.5553 20.0009 23.5553C18.0371 23.5553 16.4453 21.9633 16.4453 19.9997C16.4453 18.0359 18.0371 16.4441 20.0009 16.4441Z" fill="white"/>
</g>
<defs>
<clipPath id="clip0_106_1059">
<rect width="40" height="40" fill="white"/>
</clipPath>
</defs>
</svg>
