<svg width="50" height="50" viewBox="0 0 50 50" fill="none" xmlns="http://www.w3.org/2000/svg">
<path d="M49 23.8636C49 36.9091 38.9995 49 25.5435 49C12.0327 49 1 36.85 1 23.8636C1 10.9938 11.9144 1 25.5435 1C39.1141 1 49 10.9382 49 23.8636Z" stroke="white" stroke-width="2"/>
<path d="M33.7715 16.4773C33.7715 15.9129 33.3339 15.4554 32.794 15.4554H23.9962C23.4563 15.4554 23.0186 15.9129 23.0186 16.4773C23.0186 17.0417 23.4563 17.4993 23.9962 17.4993H31.8165L31.8165 25.6751C31.8165 26.2395 32.2541 26.697 32.794 26.697C33.3339 26.697 33.7715 26.2395 33.7715 25.6751V16.4773ZM18.0826 33.3027L33.4852 17.2L32.1028 15.7547L16.7001 31.8574L18.0826 33.3027Z" fill="white"/>
</svg>
