<svg width="40" height="40" viewBox="0 0 40 40" fill="none" xmlns="http://www.w3.org/2000/svg">
<circle cx="20" cy="20" r="19" stroke="white" stroke-width="2"/>
<path fill-rule="evenodd" clip-rule="evenodd" d="M13.1698 8.183C13 8.64522 13 9.25189 13 10.4667V29.5333C13 30.7467 13 31.3533 13.1698 31.817C13.3198 32.2245 13.559 32.5557 13.8531 32.7631C14.1865 33 14.624 33 15.5 33H15.7083C16.5833 33 17.0208 33 17.3552 32.7646C17.6495 32.5568 17.8887 32.225 18.0385 31.817C18.2083 31.3548 18.2083 30.7481 18.2083 29.5333V10.4667C18.2083 9.25333 18.2083 8.64667 18.0385 8.183C17.8887 7.77496 17.6495 7.44323 17.3552 7.23544C17.0219 7 16.5844 7 15.7083 7H15.5C14.625 7 14.1875 7 13.8531 7.23544C13.5589 7.44323 13.3196 7.77496 13.1698 8.183ZM22.5448 8.183C22.375 8.64522 22.375 9.25189 22.375 10.4667V29.5333C22.375 30.7467 22.375 31.3533 22.5458 31.817C22.6956 32.2243 22.9344 32.5555 23.2281 32.7631C23.5615 33 23.999 33 24.875 33H25.0833C25.9583 33 26.3958 33 26.7302 32.7646C27.0241 32.5565 27.2629 32.2248 27.4125 31.817C27.5833 31.3548 27.5833 30.7481 27.5833 29.5333V10.4667C27.5833 9.25333 27.5833 8.64667 27.4135 8.183C27.2637 7.77496 27.0245 7.44323 26.7302 7.23544C26.3969 7 25.9594 7 25.0833 7H24.875C24 7 23.5625 7 23.2281 7.23544C22.9342 7.44348 22.6944 7.77518 22.5448 8.183Z" fill="white"/>
</svg>
