<svg width="40" height="40" viewBox="0 0 40 40" fill="none" xmlns="http://www.w3.org/2000/svg">
<circle cx="20" cy="20" r="19" stroke="white" stroke-width="2"/>
<path fill-rule="evenodd" clip-rule="evenodd" d="M10.7615 8L25.5169 24.0107L25.8355 24.3564L28.7371 27.5049C28.7371 27.5048 28.7371 27.5048 28.7372 27.5048L30.5472 29.4688L30.5471 29.4688L32.032 31.08L30.2625 33L19.2461 21.0463L19.2462 31.4898L12.7519 26.0512H8V15.1901H12.7445L13.3626 14.6623L8.99207 9.92L10.7615 8ZM29.1902 9.78284C33.1631 14.5965 34.0287 21.3258 31.7872 26.9743L29.8547 24.8773C31.2547 20.3587 30.3824 15.2058 27.238 11.4774L29.1902 9.78284ZM24.241 14.0791C25.9199 16.1108 26.6782 18.7101 26.5159 21.2546L23.6282 18.1213C23.3453 17.2994 22.9157 16.5226 22.3393 15.8376L22.2865 15.7757L24.241 14.0791ZM19.2462 9.63882L19.2461 13.3665L17.3235 11.2803L19.2462 9.63882Z" fill="white"/>
</svg>
