<svg width="180" height="50" viewBox="0 0 180 50" fill="none" xmlns="http://www.w3.org/2000/svg">
<g clip-path="url(#clip0_164_185)">
<path d="M50 25C50 11.25 38.75 0 25 0C11.25 0 0 11.25 0 25C0 28.5505 0.751758 31.9335 2.10137 35H2.0833L2.5833 36.25C3.29375 37.5525 4.09004 38.8115 4.96875 40H4.9167L5.16728 40.2673C5.40605 40.5828 5.65195 40.8919 5.90293 41.1961C5.96895 41.3537 6.08008 41.4781 6.22607 41.5593L6.3335 41.6667H6.40811C7.72412 43.1324 9.20986 44.4427 10.8335 45.5667V45.5834L11.1668 45.8334C12.0835 46.4167 13.0001 46.9167 13.9168 47.4167L14.0835 47.5H14.1364C15.9252 48.3702 17.8317 49.0322 19.8237 49.4559L20.0001 49.5V49.4939C21.6167 49.8256 23.289 50 25 50C27.9186 50 30.7237 49.4915 33.3333 48.5614V48.5833L34.5 48.1666C35.543 47.73 36.5566 47.2208 37.535 46.6491L37.6667 46.5833C37.8575 46.4641 38.0483 46.3445 38.2393 46.2232C40.3454 44.9017 42.2674 43.2788 43.9167 41.4166L45.0834 39.9999H45.0209C45.9514 38.7874 46.7505 37.4992 47.4168 36.1666L48.0001 34.9999H47.8987C49.2482 31.9335 50 28.5505 50 25ZM25 1.6667C37.5292 1.6667 47.8324 11.6754 48.3139 24.0921C45.0461 23.5172 42.5 19.683 42.5 15V14.1667H38.3333V16.6667H37.5V14.1667H33.3333V15C33.3333 21.3333 30.6666 26.6667 27.5 26.6667C26.2762 26.6667 25.1124 25.9774 24.0824 24.7705C24.0293 24.6585 23.9523 24.5648 23.8557 24.4933C21.5712 21.5911 20 16.1026 20 10V8.3333H15.8333V10.8333H12.5V8.3333H8.71279C12.9258 4.21494 18.6793 1.6667 25 1.6667ZM35 35V15.8333H35.8333V18.3333H40V15.8333H40.8333V35H35ZM40.8333 36.6667V40H37.5V36.6667H40.8333ZM33.3333 23.4539V35H30.8333V26.9799C31.8064 26.1365 32.658 24.931 33.3333 23.4539ZM30.8333 36.6667V40H27.5V36.6667H30.8333ZM27.5 35V28.3333C28.0735 28.3333 28.6312 28.2222 29.1667 28.012V35H27.5ZM22.5 36.6667H25.8333V40H22.5V36.6667ZM20 35V20.6797C20.6694 22.5793 21.5173 24.2024 22.5 25.4588V35H20ZM24.1666 35V27.1303C24.6983 27.5327 25.2553 27.8413 25.8333 28.0446V35H24.1666ZM10 35V10H10.8333V12.5H17.5V10H18.3333V35H10ZM15.8333 36.6667V40H12.5V36.6667H15.8333ZM1.68086 25.7692C2.87451 25.5908 3.99346 25.0386 5 24.1772V35H3.9332C2.58613 32.1836 1.78887 29.0599 1.68086 25.7692ZM5.8333 38.2575C5.47637 37.7396 5.14522 37.2125 4.8333 36.6667H5.8333V38.2575ZM1.68691 24.0702C1.92334 18.1163 4.41787 12.7182 8.3333 8.71279V10C8.3333 17.1255 5.38184 23.2421 1.68691 24.0702ZM6.6667 35V22.3297C7.30068 21.4412 7.86143 20.4066 8.3334 19.2514V35H6.6667ZM7.5 36.6667H8.3333H10.8333V40H7.5V36.6667ZM15.8333 45.8333H14.5264C14.0135 45.5735 13.5113 45.2956 13.0208 45H13.3333V44.1667H15V45H15.8333V45.8333ZM18.3334 47.3333C18.0528 47.2504 17.7756 47.1609 17.5 47.0684V43.3333H16.6667V42.5H11.6667V43.3333H10.8334V43.5064C10.0902 42.9355 9.38213 42.3209 8.71289 41.6667H18.3334V47.3333ZM17.5 40V36.6667H20H20.8333V40H20H17.5ZM33.3333 46.7847C30.7421 47.7837 27.9323 48.3333 25 48.3333C23.285 48.3333 21.6122 48.144 20 47.7885V41.6666H33.3333V46.7847ZM33.3333 40H32.5V36.6667H33.3333H35.8333V40H33.3333ZM38.0148 44.3394C37.8278 44.4484 37.6637 44.5575 37.5 44.6667V44.1667H38.2638C38.1809 44.2243 38.0985 44.2827 38.0148 44.3394ZM40 42.8356V42.5H35.8333V45.6468C35.5586 45.792 35.281 45.9324 35 46.0668V41.6667H41.2872C40.8728 42.0719 40.4435 42.4618 40 42.8356ZM42.8356 40H42.5V36.6667H45.1853C44.4987 37.8468 43.7112 38.9615 42.8356 40ZM46.0668 34.9999H42.5V21.4983C43.8633 23.856 45.948 25.465 48.3188 25.7776C48.2098 29.0651 47.4127 32.1859 46.0668 34.9999Z" fill="black" fill-opacity="0.91"/>
<path d="M16.6668 14.1667H11.6668V15H10.8335V19.1667H17.5001V15H16.6668V14.1667ZM15.8334 17.5H12.5001V16.6667H13.3334V15.8334H15.0001V16.6667H15.8334V17.5Z" fill="black" fill-opacity="0.91"/>
<path d="M16.6668 21.6667H11.6668V22.5H10.8335V26.6667H17.5001V22.5H16.6668V21.6667ZM15.8334 25H12.5001V24.1667H13.3334V23.3334H15.0001V24.1667H15.8334V25Z" fill="black" fill-opacity="0.91"/>
<path d="M16.6668 29.1667H11.6668V30.0001H10.8335V34.1667H17.5001V30.0001H16.6668V29.1667ZM15.8334 32.5H12.5001V31.6667H13.3334V30.8334H15.0001V31.6667H15.8334V32.5Z" fill="black" fill-opacity="0.91"/>
<path d="M35.8333 23.3332H40V19.1665H35.8333V23.3332ZM37.4999 20.8332H38.3332V21.6665H37.4999V20.8332Z" fill="black" fill-opacity="0.91"/>
<path d="M35.8333 28.3332H40V24.1665H35.8333V28.3332ZM37.4999 25.8332H38.3332V26.6665H37.4999V25.8332Z" fill="black" fill-opacity="0.91"/>
<path d="M35.8333 33.3332H40V29.1665H35.8333V33.3332ZM37.4999 30.8332H38.3332V31.6665H37.4999V30.8332Z" fill="black" fill-opacity="0.91"/>
</g>
<path d="M69.1005 15.52C69.1005 16.48 68.9445 17.359 68.6325 18.157C68.3205 18.949 67.8795 19.63 67.3095 20.2C66.7455 20.77 66.0645 21.214 65.2665 21.532C64.4745 21.844 63.5925 22 62.6205 22H57.7245V9.04H62.6205C63.5925 9.04 64.4745 9.199 65.2665 9.517C66.0645 9.829 66.7455 10.27 67.3095 10.84C67.8795 11.41 68.3205 12.094 68.6325 12.892C68.9445 13.684 69.1005 14.56 69.1005 15.52ZM66.9495 15.52C66.9495 14.776 66.8475 14.107 66.6435 13.513C66.4455 12.919 66.1575 12.418 65.7795 12.01C65.4075 11.602 64.9545 11.29 64.4205 11.074C63.8865 10.852 63.2865 10.741 62.6205 10.741H59.8395V20.299H62.6205C63.2865 20.299 63.8865 20.191 64.4205 19.975C64.9545 19.759 65.4075 19.447 65.7795 19.039C66.1575 18.625 66.4455 18.124 66.6435 17.536C66.8475 16.942 66.9495 16.27 66.9495 15.52ZM73.5329 22H71.4179V9.04H73.5329V22ZM83.3805 11.254C83.3145 11.362 83.2455 11.443 83.1735 11.497C83.1015 11.545 83.0115 11.569 82.9035 11.569C82.7895 11.569 82.6605 11.521 82.5165 11.425C82.3785 11.329 82.2045 11.224 81.9945 11.11C81.7905 10.99 81.5475 10.882 81.2655 10.786C80.9835 10.684 80.6475 10.633 80.2575 10.633C79.8975 10.633 79.5795 10.678 79.3035 10.768C79.0335 10.858 78.8055 10.984 78.6195 11.146C78.4335 11.308 78.2925 11.5 78.1965 11.722C78.1065 11.938 78.0615 12.175 78.0615 12.433C78.0615 12.763 78.1485 13.039 78.3225 13.261C78.4965 13.477 78.7245 13.663 79.0065 13.819C79.2945 13.975 79.6215 14.113 79.9875 14.233C80.3535 14.347 80.7255 14.47 81.1035 14.602C81.4875 14.734 81.8625 14.884 82.2285 15.052C82.5945 15.22 82.9185 15.433 83.2005 15.691C83.4885 15.949 83.7195 16.264 83.8935 16.636C84.0675 17.008 84.1545 17.461 84.1545 17.995C84.1545 18.571 84.0555 19.111 83.8575 19.615C83.6595 20.119 83.3715 20.56 82.9935 20.938C82.6215 21.31 82.1595 21.604 81.6075 21.82C81.0615 22.036 80.4375 22.144 79.7355 22.144C79.3215 22.144 78.9165 22.102 78.5205 22.018C78.1305 21.94 77.7555 21.829 77.3955 21.685C77.0415 21.535 76.7085 21.355 76.3965 21.145C76.0845 20.935 75.8055 20.701 75.5595 20.443L76.1715 19.435C76.2255 19.351 76.2945 19.285 76.3785 19.237C76.4625 19.189 76.5555 19.165 76.6575 19.165C76.7955 19.165 76.9485 19.231 77.1165 19.363C77.2845 19.489 77.4855 19.63 77.7195 19.786C77.9595 19.936 78.2475 20.077 78.5835 20.209C78.9195 20.335 79.3215 20.398 79.7895 20.398C80.5515 20.398 81.1395 20.212 81.5535 19.84C81.9735 19.468 82.1835 18.955 82.1835 18.301C82.1835 17.935 82.0965 17.638 81.9225 17.41C81.7485 17.176 81.5175 16.981 81.2295 16.825C80.9475 16.669 80.6235 16.537 80.2575 16.429C79.8915 16.321 79.5195 16.207 79.1415 16.087C78.7635 15.961 78.3915 15.817 78.0255 15.655C77.6595 15.487 77.3325 15.271 77.0445 15.007C76.7625 14.737 76.5345 14.407 76.3605 14.017C76.1865 13.621 76.0995 13.129 76.0995 12.541C76.0995 12.073 76.1895 11.62 76.3695 11.182C76.5555 10.744 76.8225 10.357 77.1705 10.021C77.5245 9.679 77.9595 9.406 78.4755 9.202C78.9915 8.998 79.5795 8.896 80.2395 8.896C80.9835 8.896 81.6645 9.013 82.2825 9.247C82.9065 9.481 83.4435 9.814 83.8935 10.246L83.3805 11.254ZM95.4296 19.111C95.5436 19.111 95.6426 19.156 95.7266 19.246L96.5636 20.155C96.0356 20.791 95.3876 21.283 94.6196 21.631C93.8516 21.973 92.9336 22.144 91.8656 22.144C90.9176 22.144 90.0596 21.982 89.2916 21.658C88.5296 21.328 87.8786 20.872 87.3386 20.29C86.7986 19.702 86.3816 19.003 86.0876 18.193C85.7996 17.383 85.6556 16.492 85.6556 15.52C85.6556 14.548 85.8086 13.657 86.1146 12.847C86.4266 12.031 86.8616 11.332 87.4196 10.75C87.9836 10.162 88.6556 9.706 89.4356 9.382C90.2216 9.058 91.0856 8.896 92.0276 8.896C92.9636 8.896 93.7886 9.049 94.5026 9.355C95.2226 9.655 95.8466 10.057 96.3746 10.561L95.6816 11.542C95.6336 11.608 95.5766 11.665 95.5106 11.713C95.4446 11.761 95.3546 11.785 95.2406 11.785C95.1206 11.785 94.9826 11.731 94.8266 11.623C94.6766 11.509 94.4816 11.386 94.2416 11.254C94.0076 11.116 93.7106 10.993 93.3506 10.885C92.9966 10.771 92.5526 10.714 92.0186 10.714C91.4006 10.714 90.8336 10.822 90.3176 11.038C89.8016 11.254 89.3576 11.569 88.9856 11.983C88.6136 12.397 88.3226 12.901 88.1126 13.495C87.9086 14.089 87.8066 14.764 87.8066 15.52C87.8066 16.282 87.9146 16.963 88.1306 17.563C88.3466 18.157 88.6436 18.661 89.0216 19.075C89.3996 19.483 89.8436 19.795 90.3536 20.011C90.8636 20.227 91.4126 20.335 92.0006 20.335C92.3606 20.335 92.6816 20.317 92.9636 20.281C93.2516 20.239 93.5156 20.176 93.7556 20.092C93.9956 20.002 94.2206 19.891 94.4306 19.759C94.6466 19.627 94.8596 19.465 95.0696 19.273C95.1896 19.165 95.3096 19.111 95.4296 19.111ZM110.296 15.52C110.296 16.48 110.14 17.365 109.828 18.175C109.516 18.985 109.075 19.684 108.505 20.272C107.941 20.854 107.26 21.31 106.462 21.64C105.67 21.97 104.788 22.135 103.816 22.135C102.85 22.135 101.968 21.97 101.17 21.64C100.378 21.31 99.6971 20.854 99.1271 20.272C98.5571 19.684 98.1161 18.985 97.8041 18.175C97.4921 17.365 97.3361 16.48 97.3361 15.52C97.3361 14.56 97.4921 13.675 97.8041 12.865C98.1161 12.055 98.5571 11.356 99.1271 10.768C99.6971 10.18 100.378 9.721 101.17 9.391C101.968 9.061 102.85 8.896 103.816 8.896C104.788 8.896 105.67 9.061 106.462 9.391C107.26 9.721 107.941 10.18 108.505 10.768C109.075 11.356 109.516 12.055 109.828 12.865C110.14 13.675 110.296 14.56 110.296 15.52ZM108.145 15.52C108.145 14.776 108.043 14.107 107.839 13.513C107.641 12.919 107.353 12.415 106.975 12.001C106.603 11.587 106.15 11.269 105.616 11.047C105.082 10.825 104.482 10.714 103.816 10.714C103.156 10.714 102.559 10.825 102.025 11.047C101.491 11.269 101.035 11.587 100.657 12.001C100.279 12.415 99.9881 12.919 99.7841 13.513C99.5801 14.107 99.4781 14.776 99.4781 15.52C99.4781 16.27 99.5801 16.942 99.7841 17.536C99.9881 18.13 100.279 18.634 100.657 19.048C101.035 19.456 101.491 19.771 102.025 19.993C102.559 20.209 103.156 20.317 103.816 20.317C104.482 20.317 105.082 20.209 105.616 19.993C106.15 19.771 106.603 19.456 106.975 19.048C107.353 18.634 107.641 18.13 107.839 17.536C108.043 16.942 108.145 16.27 108.145 15.52ZM123.044 9.04L117.788 22H115.889L110.633 9.04H112.316C112.502 9.04 112.652 9.088 112.766 9.184C112.88 9.274 112.967 9.388 113.027 9.526L116.366 17.977C116.546 18.451 116.711 18.997 116.861 19.615C116.927 19.309 116.996 19.018 117.068 18.742C117.146 18.466 117.23 18.211 117.32 17.977L120.65 9.526C120.698 9.406 120.782 9.295 120.902 9.193C121.022 9.091 121.172 9.04 121.352 9.04H123.044ZM132.648 20.299L132.639 22H124.557V9.04H132.639V10.741H126.672V14.647H131.442V16.294H126.672V20.299H132.648ZM138.69 15.25C139.17 15.25 139.59 15.193 139.95 15.079C140.31 14.959 140.61 14.794 140.85 14.584C141.09 14.374 141.27 14.125 141.39 13.837C141.51 13.543 141.57 13.219 141.57 12.865C141.57 12.157 141.336 11.617 140.868 11.245C140.4 10.873 139.692 10.687 138.744 10.687H137.034V15.25H138.69ZM144.792 22H142.911C142.539 22 142.269 21.856 142.101 21.568L139.077 17.203C138.975 17.053 138.864 16.945 138.744 16.879C138.624 16.813 138.444 16.78 138.204 16.78H137.034V22H134.928V9.04H138.744C139.596 9.04 140.328 9.127 140.94 9.301C141.558 9.475 142.065 9.724 142.461 10.048C142.857 10.366 143.148 10.75 143.334 11.2C143.526 11.65 143.622 12.151 143.622 12.703C143.622 13.153 143.553 13.573 143.415 13.963C143.283 14.353 143.088 14.707 142.83 15.025C142.578 15.343 142.266 15.619 141.894 15.853C141.522 16.087 141.099 16.27 140.625 16.402C140.883 16.558 141.105 16.777 141.291 17.059L144.792 22Z" fill="black" fill-opacity="0.91"/>
<path d="M66.8818 33.795H62.8408V45H60.7438V33.795H56.6938V32.04H66.8818V33.795ZM79.4135 32.04V45H77.3075V39.231H70.8005V45H68.6855V32.04H70.8005V37.71H77.3075V32.04H79.4135ZM90.5929 43.299L90.5839 45H82.5019V32.04H90.5839V33.741H84.6169V37.647H89.3869V39.294H84.6169V43.299H90.5929ZM102.071 43.335C102.545 43.335 102.944 43.281 103.268 43.173C103.598 43.059 103.865 42.906 104.069 42.714C104.279 42.522 104.429 42.297 104.519 42.039C104.615 41.775 104.663 41.493 104.663 41.193C104.663 40.581 104.453 40.101 104.033 39.753C103.619 39.399 102.962 39.222 102.062 39.222H99.4614V43.335H102.071ZM99.4614 33.687V37.737H101.567C102.467 37.737 103.139 37.563 103.583 37.215C104.027 36.867 104.249 36.366 104.249 35.712C104.249 34.998 104.039 34.482 103.619 34.164C103.205 33.846 102.554 33.687 101.666 33.687H99.4614ZM101.666 32.04C102.494 32.04 103.202 32.121 103.79 32.283C104.378 32.439 104.861 32.664 105.239 32.958C105.617 33.252 105.893 33.612 106.067 34.038C106.247 34.458 106.337 34.932 106.337 35.46C106.337 35.766 106.289 36.063 106.193 36.351C106.103 36.633 105.959 36.9 105.761 37.152C105.569 37.398 105.326 37.62 105.032 37.818C104.738 38.016 104.39 38.181 103.988 38.313C105.824 38.703 106.742 39.678 106.742 41.238C106.742 41.79 106.637 42.297 106.427 42.759C106.223 43.215 105.923 43.611 105.527 43.947C105.137 44.277 104.654 44.535 104.078 44.721C103.502 44.907 102.845 45 102.107 45H97.3554V32.04H101.666ZM115.78 40.14L113.998 35.406C113.854 35.04 113.707 34.575 113.557 34.011C113.491 34.293 113.419 34.554 113.341 34.794C113.263 35.028 113.191 35.235 113.125 35.415L111.343 40.14H115.78ZM119.767 45H118.138C117.952 45 117.802 44.955 117.688 44.865C117.574 44.769 117.487 44.652 117.427 44.514L116.347 41.652H110.767L109.687 44.514C109.639 44.634 109.555 44.745 109.435 44.847C109.315 44.949 109.165 45 108.985 45H107.356L112.495 32.04H114.628L119.767 45ZM125.216 39.924V45H123.119V39.924L118.385 32.04H120.23C120.416 32.04 120.563 32.085 120.671 32.175C120.779 32.265 120.869 32.379 120.941 32.517L123.596 37.161C123.716 37.395 123.824 37.617 123.92 37.827C124.022 38.037 124.112 38.244 124.19 38.448C124.256 38.238 124.337 38.031 124.433 37.827C124.529 37.617 124.637 37.395 124.757 37.161L127.394 32.517C127.454 32.397 127.541 32.289 127.655 32.193C127.769 32.091 127.916 32.04 128.096 32.04H129.95L125.216 39.924ZM141.461 40.14L139.679 35.406C139.535 35.04 139.388 34.575 139.238 34.011C139.172 34.293 139.1 34.554 139.022 34.794C138.944 35.028 138.872 35.235 138.806 35.415L137.024 40.14H141.461ZM145.448 45H143.819C143.633 45 143.483 44.955 143.369 44.865C143.255 44.769 143.168 44.652 143.108 44.514L142.028 41.652H136.448L135.368 44.514C135.32 44.634 135.236 44.745 135.116 44.847C134.996 44.949 134.846 45 134.666 45H133.037L138.176 32.04H140.309L145.448 45ZM150.723 38.25C151.203 38.25 151.623 38.193 151.983 38.079C152.343 37.959 152.643 37.794 152.883 37.584C153.123 37.374 153.303 37.125 153.423 36.837C153.543 36.543 153.603 36.219 153.603 35.865C153.603 35.157 153.369 34.617 152.901 34.245C152.433 33.873 151.725 33.687 150.777 33.687H149.067V38.25H150.723ZM156.825 45H154.944C154.572 45 154.302 44.856 154.134 44.568L151.11 40.203C151.008 40.053 150.897 39.945 150.777 39.879C150.657 39.813 150.477 39.78 150.237 39.78H149.067V45H146.961V32.04H150.777C151.629 32.04 152.361 32.127 152.973 32.301C153.591 32.475 154.098 32.724 154.494 33.048C154.89 33.366 155.181 33.75 155.367 34.2C155.559 34.65 155.655 35.151 155.655 35.703C155.655 36.153 155.586 36.573 155.448 36.963C155.316 37.353 155.121 37.707 154.863 38.025C154.611 38.343 154.299 38.619 153.927 38.853C153.555 39.087 153.132 39.27 152.658 39.402C152.916 39.558 153.138 39.777 153.324 40.059L156.825 45ZM166.478 43.299L166.469 45H158.387V32.04H166.469V33.741H160.502V37.647H165.272V39.294H160.502V43.299H166.478ZM175.616 40.14L173.834 35.406C173.69 35.04 173.543 34.575 173.393 34.011C173.327 34.293 173.255 34.554 173.177 34.794C173.099 35.028 173.027 35.235 172.961 35.415L171.179 40.14H175.616ZM179.603 45H177.974C177.788 45 177.638 44.955 177.524 44.865C177.41 44.769 177.323 44.652 177.263 44.514L176.183 41.652H170.603L169.523 44.514C169.475 44.634 169.391 44.745 169.271 44.847C169.151 44.949 169.001 45 168.821 45H167.192L172.331 32.04H174.464L179.603 45Z" fill="black" fill-opacity="0.91"/>
<defs>
<clipPath id="clip0_164_185">
<rect width="50" height="50" fill="white"/>
</clipPath>
</defs>
</svg>
